# xmcd
#
# Track frame offsets: 
#        150
#        21503
#        40697
#        60405
#        78741
#        95624
#        113712
#        130528
#        146856
#        164454
#        181876
#        197475
#        212680
#
# Disc length: 3024 seconds
#
# Revision: 1
# Processed by: cddbd v1.5.2PL0 Copyright (c) Steve Scherf et al.
# Submitted via: ExactAudioCopy v1.1
#
DISCID=b10bce0d
DTITLE=Bunny Lee and The Aggrovators - Super Dub Disco Style
DYEAR=1979
DGENRE=Reggae
TTITLE0=Money In My Pocket Dub
TTITLE1=Super Rockers Dub
TTITLE2=Shalin Temple Dub
TTITLE3=Portobello Special Dub
TTITLE4=The Dub Specialist
TTITLE5=The Aggrovators Special Dub
TTITLE6=The Revolutionaries Heavyweight Dub
TTITLE7=The Bomb Dub
TTITLE8=The Killer Dub
TTITLE9=The Scientist Dub
TTITLE10=Dubbers Delight
TTITLE11=Man Never Imitate, Always Originate
TTITLE12=Dub Vendors Choice
EXTD=
EXTT0=
EXTT1=
EXTT2=
EXTT3=
EXTT4=
EXTT5=
EXTT6=
EXTT7=
EXTT8=
EXTT9=
EXTT10=
EXTT11=
EXTT12=
PLAYORDER=
